# xmcd
#
# Track frame offsets: 
#        150
#        16435
#        27168
#        37816
#        48532
#        57898
#        66642
#        77532
#        86668
#        95448
#        103503
#        111560
#        122482
#
# Disc length: 1784 seconds
#
# Revision: 1
# Processed by: cddbd v1.5.2PL0 Copyright (c) Steve Scherf et al.
# Submitted via: ExactAudioCopyFreeDBPlugin 1.0
#
DISCID=a606f60d
DTITLE=James Brown - Nat Kendrick and the Swans
DYEAR=1960
DGENRE=Soul
TTITLE0=Mashed Potatoes (original vocal by James Brown) (previously un
TTITLE0=released)
TTITLE1=Dish Rag Pt. 1 (released as "Nat Kendrick and The Swans")
TTITLE2=Dish Rag Pt. 2 (released as "Nat Kendrick and The Swans")
TTITLE3=Hot Chilli (released as "Nat Kendrick and The Swans")
TTITLE4=Slow Down (released as "Nat Kendrick and The Swans")
TTITLE5=Wobble Wobble Pt. 1 (released as "Nat Kendrick and The Swans")
TTITLE6=Wobble Wobble Pt. 2 (released as "Nat Kendrick and The Swans")
TTITLE7=Loo-Key Doo-Key Pt. 1 (ft Carlton "King" Coleman, vocals) (rel
TTITLE7=eased as "Nat Kendrick and The Swans")
TTITLE8=Loo-Key Doo-Key Pt. 2 (ft Carlton "King" Coleman, vocals) (rel
TTITLE8=eased as "Nat Kendrick and The Swans")
TTITLE9=(Do The) Mashed Potatoes Pt. 1 (ft Carlton "King" Coleman, voc
TTITLE9=als) (released as "Nat Kendrick and The Swans")
TTITLE10=(Do The) Mashed Potatoes Pt. 2 (ft Carlton "King" Coleman, vo
TTITLE10=cals) (released as "Nat Kendrick and The Swans")
TTITLE11=Say Yeah Yeah (released as "Yvonne Fair", vocals)
TTITLE12=Straighten Up (released as "Yvonne Fair", vocals)
EXTD=
EXTT0=
EXTT1=
EXTT2=
EXTT3=
EXTT4=
EXTT5=
EXTT6=
EXTT7=
EXTT8=
EXTT9=
EXTT10=
EXTT11=
EXTT12=
PLAYORDER=
